STARTFONT 2.1
FONT -WRI-Mathematica1Mono-Bold-R-Normal--26-260-75-75-M-160-Adobe-FontSpecific
SIZE 26 75 75
FONTBOUNDINGBOX 37 28 -1 -6
STARTPROPERTIES 16
FOUNDRY "WRI"
FAMILY_NAME "Mathematica1Mono"
WEIGHT_NAME "Bold"
SLANT "R"
SETWIDTH_NAME "Normal"
PIXEL_SIZE 26
POINT_SIZE 260
RESOLUTION_X 75
RESOLUTION_Y 75
SPACING "M"
AVERAGE_WIDTH 160
CHARSET_REGISTRY "Adobe"
CHARSET_ENCODING "FontSpecific"
FONT_DESCENT 6
FONT_ASCENT 22
DEFAULT_CHAR 32
ENDPROPERTIES
CHARS 224
STARTCHAR Space
ENCODING 32
SWIDTH 263 0
DWIDTH 7 0
BBX 0 0 0 0
BITMAP
ENDCHAR
STARTCHAR Exclamation
ENCODING 33
SWIDTH 600 0
DWIDTH 16 0
BBX 4 15 6 0
BITMAP
f0
60
60
60
60
60
60
60
60
60
00
60
f0
f0
60
ENDCHAR
STARTCHAR ForAll
ENCODING 34
SWIDTH 600 0
DWIDTH 16 0
BBX 13 15 1 0
BITMAP
c018
e038
6030
6030
7070
3fe0
3fe0
18c0
18c0
1dc0
0d80
0d80
0f00
0700
0700
ENDCHAR
STARTCHAR NumberSign
ENCODING 35
SWIDTH 600 0
DWIDTH 16 0
BBX 11 18 2 -1
BITMAP
08c0
1980
1980
1980
1980
1980
ffe0
ffe0
3980
3980
ffe0
ffe0
3380
3380
3300
3300
3300
3300
ENDCHAR
STARTCHAR Exists
ENCODING 36
SWIDTH 600 0
DWIDTH 16 0
BBX 12 15 1 0
BITMAP
fff0
fff0
0030
0030
0030
0030
0030
0ff0
0ff0
0030
0030
0030
0030
7ff0
7ff0
ENDCHAR
STARTCHAR Percent
ENCODING 37
SWIDTH 600 0
DWIDTH 16 0
BBX 14 16 1 0
BITMAP
3800
7c00
c600
c608
c638
7c70
39e0
0380
0700
1ef0
39f8
739c
230c
039c
01f8
00f0
ENDCHAR
STARTCHAR Ampersand
ENCODING 38
SWIDTH 600 0
DWIDTH 16 0
BBX 13 14 1 0
BITMAP
0f00
3fc0
3180
3000
3800
3800
3c78
7ef8
e7c0
c7c0
c3c0
e3c0
7ff8
3ef8
ENDCHAR
STARTCHAR SmallMember
ENCODING 39
SWIDTH 600 0
DWIDTH 16 0
BBX 11 12 2 0
BITMAP
3f00
ffc0
e0c0
c0e0
0060
0060
7fe0
7fe0
00e0
81c0
ff80
7e00
ENDCHAR
STARTCHAR LParen
ENCODING 40
SWIDTH 600 0
DWIDTH 16 0
BBX 5 21 7 -5
BITMAP
18
18
30
30
60
60
60
c0
c0
c0
c0
c0
c0
c0
60
60
60
30
30
18
18
ENDCHAR
STARTCHAR RParen
ENCODING 41
SWIDTH 600 0
DWIDTH 16 0
BBX 6 21 3 -5
BITMAP
e0
60
70
30
38
18
18
0c
0c
0c
0c
0c
0c
0c
18
18
38
30
70
60
e0
ENDCHAR
STARTCHAR Star
ENCODING 42
SWIDTH 600 0
DWIDTH 16 0
BBX 10 11 3 0
BITMAP
0c00
0c00
0c00
edc0
ffc0
ffc0
1e00
3f00
3f00
7380
2100
ENDCHAR
STARTCHAR Plus
ENCODING 43
SWIDTH 600 0
DWIDTH 16 0
BBX 10 10 3 1
BITMAP
0c00
0c00
0c00
0c00
ffc0
ffc0
0c00
0c00
0c00
0c00
ENDCHAR
STARTCHAR Comma
ENCODING 44
SWIDTH 600 0
DWIDTH 16 0
BBX 5 7 4 -3
BITMAP
38
78
70
70
e0
e0
e0
ENDCHAR
STARTCHAR Minus
ENCODING 45
SWIDTH 600 0
DWIDTH 16 0
BBX 10 2 3 5
BITMAP
ffc0
ffc0
ENDCHAR
STARTCHAR Period
ENCODING 46
SWIDTH 600 0
DWIDTH 16 0
BBX 5 4 5 0
BITMAP
70
f8
f8
70
ENDCHAR
STARTCHAR Slash
ENCODING 47
SWIDTH 600 0
DWIDTH 16 0
BBX 9 19 3 -2
BITMAP
0180
0180
0380
0300
0300
0600
0600
0e00
0c00
1c00
1800
3800
3000
3000
6000
6000
e000
c000
c000
ENDCHAR
STARTCHAR Zero
ENCODING 48
SWIDTH 600 0
DWIDTH 16 0
BBX 10 16 3 0
BITMAP
1e00
3f00
7380
6180
c0c0
c0c0
c0c0
c0c0
c0c0
c0c0
c0c0
c0c0
6180
7380
3f00
1e00
ENDCHAR
STARTCHAR One
ENCODING 49
SWIDTH 600 0
DWIDTH 16 0
BBX 10 16 3 0
BITMAP
0c00
3c00
fc00
ec00
0c00
0c00
0c00
0c00
0c00
0c00
0c00
0c00
0c00
0c00
ffc0
ffc0
ENDCHAR
STARTCHAR Two
ENCODING 50
SWIDTH 600 0
DWIDTH 16 0
BBX 11 16 2 0
BITMAP
1f00
7fc0
e1c0
c0e0
c060
0060
0060
00c0
01c0
0380
0f00
1e00
3860
f060
ffe0
ffe0
ENDCHAR
STARTCHAR Three
ENCODING 51
SWIDTH 600 0
DWIDTH 16 0
BBX 11 16 2 0
BITMAP
1f00
ff80
61c0
40c0
00c0
01c0
0fc0
0f80
0fc0
00e0
0060
0060
0060
e0c0
ffc0
3f00
ENDCHAR
STARTCHAR Four
ENCODING 52
SWIDTH 600 0
DWIDTH 16 0
BBX 11 16 2 0
BITMAP
0380
0380
0780
0f80
0d80
1980
3980
7180
6180
e180
ffe0
ffe0
0180
0180
1fe0
1fe0
ENDCHAR
STARTCHAR Five
ENCODING 53
SWIDTH 600 0
DWIDTH 16 0
BBX 11 16 2 0
BITMAP
7fc0
7fc0
6000
6000
6000
6000
7f00
7fc0
61c0
0060
0060
0060
0060
41c0
ffc0
3f00
ENDCHAR
STARTCHAR Six
ENCODING 54
SWIDTH 600 0
DWIDTH 16 0
BBX 10 16 3 0
BITMAP
07c0
1fc0
3c00
7000
7000
6000
ef00
ff80
f180
e0c0
e0c0
e0c0
60c0
7180
3f80
1f00
ENDCHAR
STARTCHAR Seven
ENCODING 55
SWIDTH 600 0
DWIDTH 16 0
BBX 10 16 2 0
BITMAP
ffc0
ffc0
c0c0
c1c0
0180
0180
0380
0300
0300
0700
0600
0600
0e00
0c00
0c00
1c00
ENDCHAR
STARTCHAR Eight
ENCODING 56
SWIDTH 600 0
DWIDTH 16 0
BBX 11 16 2 0
BITMAP
0f00
3fc0
70e0
6060
6060
6060
70c0
3fc0
7fc0
70e0
c060
c060
c060
70e0
3fc0
1f00
ENDCHAR
STARTCHAR Nine
ENCODING 57
SWIDTH 600 0
DWIDTH 16 0
BBX 11 16 2 0
BITMAP
1e00
7f80
63c0
c1c0
c0e0
c0e0
c0e0
61e0
7fe0
1ee0
00c0
01c0
0380
0780
fe00
f800
ENDCHAR
STARTCHAR Colon
ENCODING 58
SWIDTH 600 0
DWIDTH 16 0
BBX 5 11 5 0
BITMAP
70
f8
f8
70
00
00
00
70
f8
f8
70
ENDCHAR
STARTCHAR SemiColon
ENCODING 59
SWIDTH 600 0
DWIDTH 16 0
BBX 7 14 3 -3
BITMAP
1c
3e
3e
1c
00
00
00
3c
3c
38
78
70
70
e0
ENDCHAR
STARTCHAR Less
ENCODING 60
SWIDTH 600 0
DWIDTH 16 0
BBX 11 14 2 -1
BITMAP
0020
00c0
01c0
0780
1e00
3c00
f000
f000
3c00
1e00
0780
01c0
00c0
0020
ENDCHAR
STARTCHAR Equal
ENCODING 61
SWIDTH 600 0
DWIDTH 16 0
BBX 10 7 3 2
BITMAP
ffc0
ffc0
0000
0000
0000
ffc0
ffc0
ENDCHAR
STARTCHAR Greater
ENCODING 62
SWIDTH 600 0
DWIDTH 16 0
BBX 11 14 3 -1
BITMAP
8000
e000
f000
7c00
1f00
0f80
03e0
03e0
0f80
1f00
7c00
f000
e000
8000
ENDCHAR
STARTCHAR Question
ENCODING 63
SWIDTH 600 0
DWIDTH 16 0
BBX 10 15 3 0
BITMAP
7e00
ff80
c1c0
c0c0
00c0
01c0
1f80
1f00
1800
1800
0000
1c00
3e00
3e00
1c00
ENDCHAR
STARTCHAR TildeFullEqual
ENCODING 64
SWIDTH 600 0
DWIDTH 16 0
BBX 10 11 3 1
BITMAP
7040
fcc0
cfc0
4380
0000
0000
ffc0
ffc0
0000
ffc0
ffc0
ENDCHAR
STARTCHAR CapAlpha
ENCODING 65
SWIDTH 600 0
DWIDTH 16 0
BBX 15 15 0 0
BITMAP
0380
0380
0380
07c0
06c0
0ee0
0c60
0c60
1c70
1ff0
3ff8
3838
3018
fc7e
fc7e
ENDCHAR
STARTCHAR CapBeta
ENCODING 66
SWIDTH 600 0
DWIDTH 16 0
BBX 14 15 1 0
BITMAP
ffe0
fff0
3038
3018
3018
3038
3ff0
3ff8
3038
300c
300c
300c
301c
fff8
ffe0
ENDCHAR
STARTCHAR CapChi
ENCODING 67
SWIDTH 600 0
DWIDTH 16 0
BBX 14 15 1 0
BITMAP
fdf8
fdf8
38e0
1cc0
1dc0
0f80
0700
0700
0f80
0f80
1cc0
38e0
7070
fcfc
fcfc
ENDCHAR
STARTCHAR CapDelta
ENCODING 68
SWIDTH 600 0
DWIDTH 16 0
BBX 14 15 1 0
BITMAP
0300
0780
0780
0780
0cc0
0cc0
1ce0
1860
3870
3030
3030
7038
6018
fffc
fffc
ENDCHAR
STARTCHAR CapEpsilon
ENCODING 69
SWIDTH 600 0
DWIDTH 16 0
BBX 12 15 2 0
BITMAP
fff0
fff0
3030
3030
31b0
31b0
3f80
3f80
3180
31b0
3030
3030
3030
fff0
fff0
ENDCHAR
STARTCHAR CapPhi
ENCODING 70
SWIDTH 600 0
DWIDTH 16 0
BBX 13 15 1 0
BITMAP
3ff0
3ff0
0300
3fe0
7ff0
e338
c318
c318
c318
e338
7ff0
3fe0
0300
3ff0
3ff0
ENDCHAR
STARTCHAR CapGamma
ENCODING 71
SWIDTH 600 0
DWIDTH 16 0
BBX 13 15 1 0
BITMAP
fff8
fff8
1818
1818
1818
1818
1800
1800
1800
1800
1800
1800
1800
ff00
ff00
ENDCHAR
STARTCHAR CapEta
ENCODING 72
SWIDTH 600 0
DWIDTH 16 0
BBX 14 15 1 0
BITMAP
fcfc
fcfc
3030
3030
3030
3030
3ff0
3ff0
3030
3030
3030
3030
3030
fcfc
fcfc
ENDCHAR
STARTCHAR CapIota
ENCODING 73
SWIDTH 600 0
DWIDTH 16 0
BBX 10 15 3 0
BITMAP
ffc0
ffc0
0c00
0c00
0c00
0c00
0c00
0c00
0c00
0c00
0c00
0c00
0c00
ffc0
ffc0
ENDCHAR
STARTCHAR CurlyTheta
ENCODING 74
SWIDTH 600 0
DWIDTH 16 0
BBX 14 15 1 0
BITMAP
01e0
03f0
2638
3618
7618
6718
e398
c1f8
c0fc
c03c
c070
e070
71e0
7fc0
1f00
ENDCHAR
STARTCHAR CapKappa
ENCODING 75
SWIDTH 600 0
DWIDTH 16 0
BBX 14 15 1 0
BITMAP
fcfc
fcfc
3070
31e0
33c0
3780
3f00
3f80
3bc0
31e0
30e0
3070
3030
fc3c
fc3c
ENDCHAR
STARTCHAR CapLambda
ENCODING 76
SWIDTH 600 0
DWIDTH 16 0
BBX 15 15 0 0
BITMAP
0380
0380
0380
06c0
06c0
0ee0
0c60
0c60
1c70
1830
3838
3818
3018
fc7e
fc7e
ENDCHAR
STARTCHAR CapMu
ENCODING 77
SWIDTH 600 0
DWIDTH 16 0
BBX 15 15 0 0
BITMAP
f83e
f83e
3c38
3c78
3c78
3ef8
36d8
36d8
3398
3398
3118
3118
3018
fefe
fefe
ENDCHAR
STARTCHAR CapNu
ENCODING 78
SWIDTH 600 0
DWIDTH 16 0
BBX 15 15 0 0
BITMAP
f8fe
f8fe
3c0c
3e0c
3e0c
370c
338c
31cc
31cc
30ec
307c
307c
303c
fe1c
fe1c
ENDCHAR
STARTCHAR CapOmicron
ENCODING 79
SWIDTH 600 0
DWIDTH 16 0
BBX 14 15 1 0
BITMAP
0fc0
3ff0
7870
6018
e01c
c00c
c00c
c00c
c00c
c00c
e01c
6018
7878
3ff0
0fc0
ENDCHAR
STARTCHAR CapPi
ENCODING 80
SWIDTH 600 0
DWIDTH 16 0
BBX 14 15 1 0
BITMAP
fffc
fffc
3030
3030
3030
3030
3030
3030
3030
3030
3030
3030
3030
fcfc
fcfc
ENDCHAR
STARTCHAR CapTheta
ENCODING 81
SWIDTH 600 0
DWIDTH 16 0
BBX 14 15 1 0
BITMAP
0fc0
3fe0
7070
6038
e01c
d8cc
dfcc
dfcc
d8cc
c01c
6018
6038
78f0
3fe0
0fc0
ENDCHAR
STARTCHAR CapRho
ENCODING 82
SWIDTH 600 0
DWIDTH 16 0
BBX 13 15 2 0
BITMAP
ffc0
fff0
3070
3018
3018
3018
3018
3078
3ff0
3fc0
3000
3000
3000
ff00
ff00
ENDCHAR
STARTCHAR CapSigma
ENCODING 83
SWIDTH 600 0
DWIDTH 16 0
BBX 13 15 1 0
BITMAP
7ff0
7ff0
3830
1c30
0e30
0e00
0700
0700
0e00
0e18
1c18
3818
7018
7ff8
fff8
ENDCHAR
STARTCHAR CapTau
ENCODING 84
SWIDTH 600 0
DWIDTH 16 0
BBX 14 15 1 0
BITMAP
fffc
fffc
e31c
c30c
c30c
0300
0300
0300
0300
0300
0300
0300
0300
1fe0
1fe0
ENDCHAR
STARTCHAR CapUpsilon
ENCODING 85
SWIDTH 600 0
DWIDTH 16 0
BBX 14 15 1 0
BITMAP
f03c
fcfc
1cc0
0fc0
0780
0780
0300
0300
0300
0300
0300
0300
0300
1fe0
1fe0
ENDCHAR
STARTCHAR CapSigma2
ENCODING 86
SWIDTH 600 0
DWIDTH 16 0
BBX 12 16 2 -4
BITMAP
07c0
1ff0
3830
7030
6000
c000
c000
c000
c000
e000
7e00
3fc0
03e0
00e0
03e0
0380
ENDCHAR
STARTCHAR CapOmega
ENCODING 87
SWIDTH 600 0
DWIDTH 16 0
BBX 14 15 1 0
BITMAP
0fc0
3ff0
7878
6018
c00c
c00c
c00c
c00c
c00c
6018
7038
3cf0
0cc0
fcfc
fcfc
ENDCHAR
STARTCHAR CapXi
ENCODING 88
SWIDTH 600 0
DWIDTH 16 0
BBX 13 15 1 0
BITMAP
fff8
fff8
c018
c018
d8d8
18c0
1fc0
1fc0
18c0
18c0
c018
c018
c018
fff8
fff8
ENDCHAR
STARTCHAR CapPsi
ENCODING 89
SWIDTH 600 0
DWIDTH 16 0
BBX 13 15 1 0
BITMAP
3ff0
3ff0
0300
c318
c318
c318
c318
e318
e338
7b70
3ff0
1fc0
0300
3ff0
3ff0
ENDCHAR
STARTCHAR CapZeta
ENCODING 90
SWIDTH 600 0
DWIDTH 16 0
BBX 11 15 2 0
BITMAP
ffe0
ffe0
c1c0
c180
c380
c700
0e00
0c00
1c00
3860
3060
7060
e060
ffe0
ffe0
ENDCHAR
STARTCHAR LBracket
ENCODING 91
SWIDTH 600 0
DWIDTH 16 0
BBX 6 20 7 -4
BITMAP
fc
fc
c0
c0
c0
c0
c0
c0
c0
c0
c0
c0
c0
c0
c0
c0
c0
c0
fc
fc
ENDCHAR
STARTCHAR Therefore
ENCODING 92
SWIDTH 600 0
DWIDTH 16 0
BBX 14 13 1 0
BITMAP
0700
0f80
0f80
0700
0000
0000
0000
0000
0000
7038
f87c
f87c
7038
ENDCHAR
STARTCHAR RBracket
ENCODING 93
SWIDTH 600 0
DWIDTH 16 0
BBX 6 20 3 -4
BITMAP
fc
fc
0c
0c
0c
0c
0c
0c
0c
0c
0c
0c
0c
0c
0c
0c
0c
0c
fc
fc
ENDCHAR
STARTCHAR Perpendicular
ENCODING 94
SWIDTH 600 0
DWIDTH 16 0
BBX 14 13 1 0
BITMAP
0300
0300
0300
0300
0300
0300
0300
0300
0300
0300
0300
fffc
fffc
ENDCHAR
STARTCHAR Underbar
ENCODING 95
SWIDTH 600 0
DWIDTH 16 0
BBX 12 2 2 -6
BITMAP
fff0
fff0
ENDCHAR
STARTCHAR Hat
ENCODING 96
SWIDTH 600 0
DWIDTH 16 0
BBX 9 5 3 0
BITMAP
1c00
3e00
7700
e380
8080
ENDCHAR
STARTCHAR Alpha
ENCODING 97
SWIDTH 600 0
DWIDTH 16 0
BBX 13 12 1 0
BITMAP
0f18
3fd8
71f8
60f0
e0f0
c0e0
c0e0
c1e0
c1e0
e7e0
7f78
3c38
ENDCHAR
STARTCHAR Beta
ENCODING 98
SWIDTH 600 0
DWIDTH 16 0
BBX 13 20 1 -4
BITMAP
03e0
07f0
0e38
0c18
1c18
1838
19f0
3be0
3bf0
3838
3018
3018
7018
7438
6ff0
63e0
e000
e000
e000
c000
ENDCHAR
STARTCHAR Chi
ENCODING 99
SWIDTH 600 0
DWIDTH 16 0
BBX 16 16 -1 -4
BITMAP
1e07
3f0e
131c
03b8
03b8
01f0
01e0
01c0
03c0
07c0
0ee0
1ce0
3860
3064
707e
e03c
ENDCHAR
STARTCHAR Delta
ENCODING 100
SWIDTH 600 0
DWIDTH 16 0
BBX 12 16 2 0
BITMAP
07e0
0ff0
1810
1c00
1f00
07c0
1fe0
7870
6030
c030
c030
c070
c0e0
e1c0
7f80
3e00
ENDCHAR
STARTCHAR Epsilon
ENCODING 101
SWIDTH 600 0
DWIDTH 16 0
BBX 12 12 1 0
BITMAP
0fc0
3ff0
7830
6000
e000
ffe0
ffe0
c000
c010
7070
7ff0
1f80
ENDCHAR
STARTCHAR Phi
ENCODING 102
SWIDTH 600 0
DWIDTH 16 0
BBX 14 20 1 -4
BITMAP
00e0
00c0
00c0
01c0
01c0
0ff0
3ff8
739c
638c
c38c
c30c
c70c
c71c
e738
7ff0
3fe0
0f00
0e00
0c00
1c00
ENDCHAR
STARTCHAR Gamma
ENCODING 103
SWIDTH 600 0
DWIDTH 16 0
BBX 15 16 0 -4
BITMAP
4002
700e
fc1e
1e38
0ff0
07e0
03e0
03c0
07e0
0760
0660
0e60
0c60
0ce0
0fc0
0780
ENDCHAR
STARTCHAR Eta
ENCODING 104
SWIDTH 600 0
DWIDTH 16 0
BBX 13 17 1 -5
BITMAP
71f0
fff8
3e18
3c18
3818
3018
3030
7030
7030
6030
6070
e060
0060
0060
00e0
00e0
00c0
ENDCHAR
STARTCHAR Iota
ENCODING 105
SWIDTH 600 0
DWIDTH 16 0
BBX 10 11 4 0
BITMAP
7000
7000
6000
6000
6000
c000
c000
c000
c1c0
ffc0
7f00
ENDCHAR
STARTCHAR CurlyPhi
ENCODING 106
SWIDTH 600 0
DWIDTH 16 0
BBX 14 16 1 -4
BITMAP
1070
38f8
71dc
638c
e38c
c30c
c30c
c71c
e738
e778
7ff0
3fc0
0e00
0e00
0c00
0c00
ENDCHAR
STARTCHAR Kappa
ENCODING 107
SWIDTH 600 0
DWIDTH 16 0
BBX 15 11 0 0
BITMAP
381e
7c3e
1cf0
1bc0
1f80
1f80
39c0
30c0
30e0
f07c
e03c
ENDCHAR
STARTCHAR Lambda
ENCODING 108
SWIDTH 600 0
DWIDTH 16 0
BBX 14 16 1 0
BITMAP
1e00
1f80
03c0
00c0
00c0
00e0
00e0
01e0
03e0
0360
0760
0e60
0c60
1870
f83c
e01c
ENDCHAR
STARTCHAR Mu
ENCODING 109
SWIDTH 600 0
DWIDTH 16 0
BBX 13 15 1 -4
BITMAP
1818
1838
3830
3830
3030
3070
3070
7060
71e0
7f78
7e78
e000
e000
c000
c000
ENDCHAR
STARTCHAR Nu
ENCODING 110
SWIDTH 600 0
DWIDTH 16 0
BBX 13 12 1 0
BITMAP
c000
e038
7030
3870
1ce0
1cc0
0dc0
0d80
0f80
0f00
0e00
0e00
ENDCHAR
STARTCHAR Omicron
ENCODING 111
SWIDTH 600 0
DWIDTH 16 0
BBX 13 12 1 0
BITMAP
0fc0
3ff0
7870
6018
e018
c018
c018
c038
e030
70f0
7fe0
1f80
ENDCHAR
STARTCHAR Pi
ENCODING 112
SWIDTH 600 0
DWIDTH 16 0
BBX 15 11 1 0
BITMAP
7ffe
fffe
0670
0e60
0c60
0c60
1c60
3860
7070
e038
4030
ENDCHAR
STARTCHAR Theta
ENCODING 113
SWIDTH 600 0
DWIDTH 16 0
BBX 14 15 1 0
BITMAP
03e0
0ff8
3c38
301c
700c
600c
fffc
fffc
c01c
c018
c038
e070
70e0
3fc0
1f00
ENDCHAR
STARTCHAR Rho
ENCODING 114
SWIDTH 600 0
DWIDTH 16 0
BBX 15 16 0 -4
BITMAP
01f0
07fc
0e1c
1c0e
1806
3806
3806
3006
300e
780c
7c38
6ff0
67e0
e000
e000
c000
ENDCHAR
STARTCHAR Sigma
ENCODING 115
SWIDTH 600 0
DWIDTH 16 0
BBX 14 11 2 0
BITMAP
0ffc
3ffc
7060
e030
c030
c030
c030
c060
e0e0
7fc0
1f00
ENDCHAR
STARTCHAR Tau
ENCODING 116
SWIDTH 600 0
DWIDTH 16 0
BBX 10 11 3 0
BITMAP
ffc0
ffc0
1800
1800
1800
3000
3000
3000
30c0
3fc0
1f00
ENDCHAR
STARTCHAR Upsilon
ENCODING 117
SWIDTH 600 0
DWIDTH 16 0
BBX 13 12 2 0
BITMAP
4000
e078
6078
60e0
60c0
60c0
e0c0
c1c0
c180
e380
7f00
3e00
ENDCHAR
STARTCHAR CurlyPi
ENCODING 118
SWIDTH 600 0
DWIDTH 16 0
BBX 16 11 1 0
BITMAP
ffff
fffe
700c
638c
e38c
c30c
c30c
c718
c738
7ff0
79e0
ENDCHAR
STARTCHAR Omega
ENCODING 119
SWIDTH 600 0
DWIDTH 16 0
BBX 14 12 1 0
BITMAP
1818
3818
700c
638c
638c
c38c
c30c
c30c
c718
c738
7ff0
79e0
ENDCHAR
STARTCHAR Xi
ENCODING 120
SWIDTH 600 0
DWIDTH 16 0
BBX 14 20 2 -4
BITMAP
03f0
0ffc
0e08
1800
1800
1c00
0fe0
3fe0
7800
6000
c000
c000
c000
f800
7fc0
1fe0
0060
2060
3fc0
3f80
ENDCHAR
STARTCHAR Psi
ENCODING 121
SWIDTH 600 0
DWIDTH 16 0
BBX 15 20 1 -4
BITMAP
00c0
01c0
01c0
01c0
2180
e18e
739e
3398
3338
3338
6338
c730
c770
c670
7fe0
7fc0
0f00
0e00
0c00
1c00
ENDCHAR
STARTCHAR Zeta
ENCODING 122
SWIDTH 600 0
DWIDTH 16 0
BBX 14 20 1 -4
BITMAP
0078
33fc
3f8c
1f1c
1ff8
3bf0
3800
3000
7000
6000
6000
6000
7000
3f00
1fe0
03f0
8030
e030
ffe0
1fc0
ENDCHAR
STARTCHAR LBrace
ENCODING 123
SWIDTH 600 0
DWIDTH 16 0
BBX 8 21 4 -5
BITMAP
07
0f
1c
18
18
18
18
18
18
f0
f0
38
18
18
18
18
18
18
1c
0f
07
ENDCHAR
STARTCHAR VertBar
ENCODING 124
SWIDTH 600 0
DWIDTH 16 0
BBX 2 21 7 -5
BITMAP
c0
c0
c0
c0
c0
c0
c0
c0
c0
c0
c0
c0
c0
c0
c0
c0
c0
c0
c0
c0
c0
ENDCHAR
STARTCHAR RBrace
ENCODING 125
SWIDTH 600 0
DWIDTH 16 0
BBX 7 21 4 -5
BITMAP
e0
f0
38
18
18
18
18
18
18
1e
0e
1e
18
18
18
18
18
18
38
f0
e0
ENDCHAR
STARTCHAR Tilde
ENCODING 126
SWIDTH 600 0
DWIDTH 16 0
BBX 10 4 3 4
BITMAP
7040
fcc0
cfc0
4380
ENDCHAR
STARTCHAR DEL
ENCODING 127
SWIDTH 263 0
DWIDTH 7 0
BBX 0 0 0 0
BITMAP
ENDCHAR
STARTCHAR FractionBarExt
ENCODING 128
SWIDTH 240 0
DWIDTH 6 0
BBX 6 2 0 5
BITMAP
fc
fc
ENDCHAR
STARTCHAR EscapeChar
ENCODING 129
SWIDTH 291 0
DWIDTH 8 0
BBX 4 14 2 -2
BITMAP
f0
f0
00
00
00
00
f0
f0
00
00
00
00
f0
f0
ENDCHAR
STARTCHAR SelectPlaceholder
ENCODING 130
SWIDTH 600 0
DWIDTH 16 0
BBX 11 12 2 0
BITMAP
ffe0
ffe0
ffe0
ffe0
ffe0
ffe0
ffe0
ffe0
ffe0
ffe0
ffe0
ffe0
ENDCHAR
STARTCHAR Placeholder
ENCODING 131
SWIDTH 600 0
DWIDTH 16 0
BBX 12 12 2 0
BITMAP
fff0
8010
8010
8010
8010
8010
8010
8010
8010
8010
8010
fff0
ENDCHAR
STARTCHAR Continuation
ENCODING 132
SWIDTH 600 0
DWIDTH 16 0
BBX 7 11 4 0
BITMAP
e0
e0
e0
00
38
38
38
00
0e
0e
0e
ENDCHAR
STARTCHAR Skeleton
ENCODING 133
SWIDTH 600 0
DWIDTH 16 0
BBX 8 4 4 4
BITMAP
ff
ff
ff
ff
ENDCHAR
STARTCHAR LSkeleton
ENCODING 134
SWIDTH 1200 0
DWIDTH 31 0
BBX 25 11 3 0
BITMAP
00080180
003c0780
01f03e00
0780f800
3e07c000
f01f0000
3e07c000
0780f800
01f03e00
007c0780
00080180
ENDCHAR
STARTCHAR RSkeleton
ENCODING 135
SWIDTH 1200 0
DWIDTH 31 0
BBX 26 11 3 0
BITMAP
e00c0000
f81f0000
3f07e000
0fc0f800
01f83f00
007e07c0
01f83f00
0fc0f800
3f07e000
f81f8000
e00c0000
ENDCHAR
STARTCHAR Spacer
ENCODING 136
SWIDTH 600 0
DWIDTH 16 0
BBX 14 5 1 -5
BITMAP
c00c
c00c
c00c
fffc
fffc
ENDCHAR
STARTCHAR Cross
ENCODING 137
SWIDTH 600 0
DWIDTH 16 0
BBX 8 9 4 1
BITMAP
42
e7
ff
7e
3c
7e
ff
e7
42
ENDCHAR
STARTCHAR DblEqual
ENCODING 138
SWIDTH 798 0
DWIDTH 21 0
BBX 15 7 3 2
BITMAP
fefe
fefe
0000
0000
0000
fefe
fefe
ENDCHAR
STARTCHAR Grave
ENCODING 139
SWIDTH 600 0
DWIDTH 16 0
BBX 6 5 5 0
BITMAP
e0
70
38
18
1c
ENDCHAR
STARTCHAR Acute
ENCODING 140
SWIDTH 600 0
DWIDTH 16 0
BBX 6 5 5 0
BITMAP
1c
38
70
60
e0
ENDCHAR
STARTCHAR DoubleAcute
ENCODING 141
SWIDTH 600 0
DWIDTH 16 0
BBX 12 4 2 1
BITMAP
1cf0
38e0
71c0
e380
ENDCHAR
STARTCHAR OverTilde
ENCODING 142
SWIDTH 600 0
DWIDTH 16 0
BBX 10 4 3 1
BITMAP
70c0
fcc0
cfc0
c380
ENDCHAR
STARTCHAR OverBar
ENCODING 143
SWIDTH 600 0
DWIDTH 16 0
BBX 8 2 4 1
BITMAP
ff
ff
ENDCHAR
STARTCHAR DblUpDownArrow
ENCODING 144
SWIDTH 600 0
DWIDTH 16 0
BBX 11 18 2 0
BITMAP
0400
0e00
1f00
3b80
71c0
f1e0
71c0
3180
3180
3180
3180
71c0
f1e0
71c0
3b80
1f00
0e00
0400
ENDCHAR
STARTCHAR DblUpExtens1
ENCODING 145
SWIDTH 600 0
DWIDTH 16 0
BBX 7 5 4 0
BITMAP
c6
c6
c6
c6
c6
ENDCHAR
STARTCHAR DblLongLArrow
ENCODING 146
SWIDTH 1200 0
DWIDTH 31 0
BBX 28 11 1 0
BITMAP
04000000
0e000000
1ffffff0
3ffffff0
70000000
e0000000
70000000
3ffffff0
1ffffff0
0e000000
04000000
ENDCHAR
STARTCHAR DblExtens
ENCODING 147
SWIDTH 200 0
DWIDTH 5 0
BBX 5 7 0 2
BITMAP
f8
f8
00
00
00
f8
f8
ENDCHAR
STARTCHAR DblLongRArrow
ENCODING 148
SWIDTH 1200 0
DWIDTH 31 0
BBX 28 11 1 0
BITMAP
00000200
00000700
ffffff80
ffffffc0
000000e0
00000070
000000e0
ffffffc0
ffffff80
00000700
00000200
ENDCHAR
STARTCHAR DblLRArrow2
ENCODING 149
SWIDTH 790 0
DWIDTH 21 0
BBX 18 11 1 0
BITMAP
040800
0e1c00
1ffe00
3fff00
700380
e001c0
700380
3fff00
1ffe00
0e1c00
040800
ENDCHAR
STARTCHAR DblLongLRArrow
ENCODING 150
SWIDTH 1200 0
DWIDTH 31 0
BBX 28 11 1 0
BITMAP
04000200
0e000700
1fffff80
3fffffc0
700000e0
e0000070
700000e0
3fffffc0
1fffff80
0e000700
04000200
ENDCHAR
STARTCHAR UpDownArrow
ENCODING 151
SWIDTH 600 0
DWIDTH 16 0
BBX 10 18 3 0
BITMAP
0800
1e00
3f00
7f80
ffc0
edc0
4c80
0c00
0c00
0c00
0c00
4c80
edc0
ffc0
7f80
3f00
1e00
0800
ENDCHAR
STARTCHAR LongLArrow
ENCODING 152
SWIDTH 1200 0
DWIDTH 31 0
BBX 28 11 1 0
BITMAP
0c000000
1e000000
38000000
70000000
fffffff0
fffffff0
70000000
38000000
1c000000
0c000000
04000000
ENDCHAR
STARTCHAR LongRArrow
ENCODING 153
SWIDTH 1200 0
DWIDTH 31 0
BBX 28 11 1 0
BITMAP
00000300
00000780
000001c0
000000e0
fffffff0
fffffff0
000000e0
000001c0
00000380
00000300
00000100
ENDCHAR
STARTCHAR LongLRArrow
ENCODING 154
SWIDTH 1200 0
DWIDTH 31 0
BBX 28 11 1 0
BITMAP
0c000300
1e000780
380001c0
700000e0
fffffff0
fffffff0
700000e0
380001c0
1c000380
0c000300
04000100
ENDCHAR
STARTCHAR ColonEqual
ENCODING 155
SWIDTH 733 0
DWIDTH 19 0
BBX 16 11 1 0
BITMAP
6000
f000
f3ff
63ff
0000
0000
0000
63ff
f3ff
f000
6000
ENDCHAR
STARTCHAR Diamond2
ENCODING 156
SWIDTH 600 0
DWIDTH 16 0
BBX 10 11 3 2
BITMAP
0400
0c00
1e00
3300
6180
c0c0
6180
3300
1e00
0c00
0400
ENDCHAR
STARTCHAR NotSquareSprsetEqual
ENCODING 157
SWIDTH 600 0
DWIDTH 16 0
BBX 11 16 3 -2
BITMAP
ff00
ff80
01c0
00e0
0060
0060
0060
0060
00e0
01c0
ff80
ff00
0000
0000
ffe0
ffe0
ENDCHAR
STARTCHAR AtSign
ENCODING 158
SWIDTH 600 0
DWIDTH 16 0
BBX 15 15 0 0
BITMAP
03e0
0ff8
3c1c
300c
63f6
e7f6
ce76
cc26
cc66
ccee
e7fc
6738
3800
1ff8
07f0
ENDCHAR
STARTCHAR Solidmedsqr
ENCODING 159
SWIDTH 600 0
DWIDTH 16 0
BBX 9 10 3 2
BITMAP
ff80
ff80
ff80
ff80
ff80
ff80
ff80
ff80
ff80
ff80
ENDCHAR
STARTCHAR OverDot
ENCODING 160
SWIDTH 600 0
DWIDTH 16 0
BBX 3 3 6 1
BITMAP
e0
e0
e0
ENDCHAR
STARTCHAR CurlyCapUpsilon
ENCODING 161
SWIDTH 600 0
DWIDTH 16 0
BBX 15 15 1 0
BITMAP
f03c
fcfc
1de6
0fc6
0780
0780
0300
0300
0300
0300
0300
0300
0300
1ff0
1ff0
ENDCHAR
STARTCHAR Prime
ENCODING 162
SWIDTH 411 0
DWIDTH 11 0
BBX 7 8 2 2
BITMAP
1e
1c
3c
38
70
60
e0
c0
ENDCHAR
STARTCHAR LessEqual
ENCODING 163
SWIDTH 600 0
DWIDTH 16 0
BBX 11 14 2 0
BITMAP
0020
00c0
03c0
0f00
3c00
f000
7800
1e00
0f80
03c0
00c0
0020
ffc0
ffc0
ENDCHAR
STARTCHAR Fraction
ENCODING 164
SWIDTH 600 0
DWIDTH 16 0
BBX 13 18 1 0
BITMAP
0038
0030
0070
0060
00e0
01c0
0180
0380
0700
0700
0e00
0c00
1c00
3800
3000
7000
6000
e000
ENDCHAR
STARTCHAR Infinity
ENCODING 165
SWIDTH 735 0
DWIDTH 19 0
BBX 17 10 1 1
BITMAP
1e1c00
7f7f00
73e300
e1c180
c0c180
c0c180
e1c180
73e300
7f7f00
1e1c00
ENDCHAR
STARTCHAR RuleDelayed
ENCODING 166
SWIDTH 740 0
DWIDTH 19 0
BBX 17 12 1 0
BITMAP
001000
603800
f01c00
f00e00
600700
07ff80
07ff80
000700
600e00
f01c00
f03800
201000
ENDCHAR
STARTCHAR ClubSuit
ENCODING 167
SWIDTH 600 0
DWIDTH 16 0
BBX 14 14 1 0
BITMAP
0700
0f80
0f80
0f80
0f80
0700
7770
fff8
fffc
fffc
fff8
3af0
0200
0200
ENDCHAR
STARTCHAR DiamondSuit
ENCODING 168
SWIDTH 600 0
DWIDTH 16 0
BBX 13 15 1 0
BITMAP
0200
0200
0700
0f80
1dc0
38e0
7070
e038
7070
38e0
1dc0
0f80
0700
0200
0200
ENDCHAR
STARTCHAR HeartSuit
ENCODING 169
SWIDTH 600 0
DWIDTH 16 0
BBX 15 15 0 0
BITMAP
3c78
7efc
e7ce
c386
c006
c006
600c
701c
3838
1c70
0ee0
07c0
0380
0100
0100
ENDCHAR
STARTCHAR SpadeSuit
ENCODING 170
SWIDTH 600 0
DWIDTH 16 0
BBX 11 15 2 0
BITMAP
0400
0400
0e00
1f00
1f80
3f80
7fc0
ffc0
ffe0
ffe0
ffe0
ffe0
75c0
0400
0400
ENDCHAR
STARTCHAR LRArrow
ENCODING 171
SWIDTH 790 0
DWIDTH 21 0
BBX 18 11 1 0
BITMAP
040800
0e1c00
3c0f00
780780
ffffc0
ffffc0
700380
380700
1c0e00
0e1c00
040800
ENDCHAR
STARTCHAR LArrow
ENCODING 172
SWIDTH 720 0
DWIDTH 19 0
BBX 16 11 1 0
BITMAP
0400
1e00
3c00
7800
ffff
ffff
7000
3800
1c00
0e00
0400
ENDCHAR
STARTCHAR UpArrow
ENCODING 173
SWIDTH 600 0
DWIDTH 16 0
BBX 10 17 3 0
BITMAP
0400
0c00
1e00
3f00
7f80
edc0
ccc0
0c00
0c00
0c00
0c00
0c00
0c00
0c00
0c00
0c00
0c00
ENDCHAR
STARTCHAR RArrow
ENCODING 174
SWIDTH 720 0
DWIDTH 19 0
BBX 17 11 1 0
BITMAP
003000
007c00
003e00
001f00
ffff80
ffff80
000f00
001e00
003c00
007800
003000
ENDCHAR
STARTCHAR DownArrow
ENCODING 175
SWIDTH 600 0
DWIDTH 16 0
BBX 10 17 3 0
BITMAP
0c00
0c00
0c00
0c00
0c00
0c00
0c00
0c00
0c00
0c00
ccc0
edc0
7f80
3f00
1e00
0c00
0400
ENDCHAR
STARTCHAR Degree
ENCODING 176
SWIDTH 600 0
DWIDTH 16 0
BBX 9 9 3 9
BITMAP
3e00
7f00
e380
c180
c180
c180
e380
7f00
3e00
ENDCHAR
STARTCHAR PlusMinus
ENCODING 177
SWIDTH 600 0
DWIDTH 16 0
BBX 10 13 3 0
BITMAP
0c00
0c00
0c00
0c00
ffc0
ffc0
0c00
0c00
0c00
0c00
0000
ffc0
ffc0
ENDCHAR
STARTCHAR DoublePrime
ENCODING 178
SWIDTH 649 0
DWIDTH 17 0
BBX 13 8 2 2
BITMAP
1e78
1c70
38f0
38e0
71c0
61c0
e180
c300
ENDCHAR
STARTCHAR GreaterEqual
ENCODING 179
SWIDTH 600 0
DWIDTH 16 0
BBX 11 14 3 0
BITMAP
8000
e000
f800
3e00
0f80
03e0
07c0
1f00
7e00
f800
e000
8000
ffe0
ffe0
ENDCHAR
STARTCHAR Multiply
ENCODING 180
SWIDTH 600 0
DWIDTH 16 0
BBX 12 12 2 0
BITMAP
4020
e070
70e0
39c0
1f80
0f00
0f00
1f80
39c0
70e0
e070
4020
ENDCHAR
STARTCHAR Proportional
ENCODING 181
SWIDTH 600 0
DWIDTH 16 0
BBX 14 10 1 1
BITMAP
3c78
7ff8
63c8
c180
c180
c180
c180
63c8
7ffc
3c78
ENDCHAR
STARTCHAR PartialDiff
ENCODING 182
SWIDTH 600 0
DWIDTH 16 0
BBX 14 16 1 0
BITMAP
07e0
1ff8
1838
001c
0fcc
3ffc
787c
603c
c01c
c01c
c038
c038
e070
70f0
7fe0
1f80
ENDCHAR
STARTCHAR Bullet
ENCODING 183
SWIDTH 600 0
DWIDTH 16 0
BBX 7 6 5 5
BITMAP
38
7c
fe
fe
7c
38
ENDCHAR
STARTCHAR Divide
ENCODING 184
SWIDTH 600 0
DWIDTH 16 0
BBX 9 11 3 0
BITMAP
1c00
1c00
1c00
0000
ff80
ff80
0000
0000
1c00
1c00
1c00
ENDCHAR
STARTCHAR NotEqual
ENCODING 185
SWIDTH 600 0
DWIDTH 16 0
BBX 10 18 3 -3
BITMAP
0180
0180
0380
0300
0300
0700
ffc0
ffc0
0c00
0c00
0c00
ffc0
ffc0
3800
3000
3000
6000
6000
ENDCHAR
STARTCHAR Equivalence
ENCODING 186
SWIDTH 600 0
DWIDTH 16 0
BBX 10 11 3 0
BITMAP
ffc0
ffc0
0000
0000
ffc0
ffc0
0000
0000
0000
ffc0
ffc0
ENDCHAR
STARTCHAR Approxequal
ENCODING 187
SWIDTH 600 0
DWIDTH 16 0
BBX 10 9 3 1
BITMAP
7040
fcc0
cfc0
4380
0000
7040
fcc0
cfc0
4380
ENDCHAR
STARTCHAR Ellipsis
ENCODING 188
SWIDTH 995 0
DWIDTH 26 0
BBX 22 4 2 0
BITMAP
603018
f0783c
f0783c
603018
ENDCHAR
STARTCHAR ArrowVertEx
ENCODING 189
SWIDTH 600 0
DWIDTH 16 0
BBX 2 6 7 0
BITMAP
c0
c0
c0
c0
c0
c0
ENDCHAR
STARTCHAR ArrowHorizEx
ENCODING 190
SWIDTH 200 0
DWIDTH 5 0
BBX 5 2 0 5
BITMAP
f8
f8
ENDCHAR
STARTCHAR CarriageReturn
ENCODING 191
SWIDTH 628 0
DWIDTH 16 0
BBX 14 16 1 0
BITMAP
0004
0004
0004
0004
0004
0204
0404
1804
3004
4004
fffc
4000
3000
1800
0c00
0200
ENDCHAR
STARTCHAR Aleph
ENCODING 192
SWIDTH 600 0
DWIDTH 16 0
BBX 14 15 1 0
BITMAP
e018
7018
3818
3818
1c38
3e70
7ff0
77c0
6380
61c0
60e0
6060
6070
6038
601c
ENDCHAR
STARTCHAR IFraktur
ENCODING 193
SWIDTH 337 0
DWIDTH 9 0
BBX 7 15 1 0
BITMAP
78
fe
5c
18
18
18
18
18
18
18
18
18
38
3e
06
ENDCHAR
STARTCHAR RFraktur
ENCODING 194
SWIDTH 654 0
DWIDTH 17 0
BBX 15 15 1 0
BITMAP
0fc0
3ff0
f838
d818
1818
1870
1be0
1ff0
1830
1830
1838
1818
380c
3e06
0402
ENDCHAR
STARTCHAR Weierstrass
ENCODING 195
SWIDTH 600 0
DWIDTH 16 0
BBX 14 16 1 -4
BITMAP
01f0
03f8
cf18
dc0c
fc0c
f80c
700c
730c
7b1c
fb98
dff8
cde0
cc00
cc00
7c00
7800
ENDCHAR
STARTCHAR CircleMultiply
ENCODING 196
SWIDTH 600 0
DWIDTH 16 0
BBX 16 15 0 0
BITMAP
07e0
1ff8
3c1c
781e
7c3e
cff3
c7e3
c3c3
c7e3
cff3
7c3e
781e
3c1c
1ff8
07e0
ENDCHAR
STARTCHAR CirclePlus
ENCODING 197
SWIDTH 600 0
DWIDTH 16 0
BBX 15 15 0 0
BITMAP
07e0
1ff8
3dbc
718c
e186
e186
fffe
fffe
c186
e186
718e
799c
3ff8
1ff0
07e0
ENDCHAR
STARTCHAR EmptySet
ENCODING 198
SWIDTH 600 0
DWIDTH 16 0
BBX 14 22 1 -4
BITMAP
0030
0070
0070
0fe0
3ff0
78f8
61d8
e1dc
c18c
c38c
c30c
c70c
c70c
e61c
6e18
7c78
3ff0
1fc0
1800
3800
3000
3000
ENDCHAR
STARTCHAR Union
ENCODING 199
SWIDTH 628 0
DWIDTH 16 0
BBX 14 18 1 0
BITMAP
c00c
c00c
c00c
c00c
c00c
c00c
c00c
c00c
c00c
c00c
c00c
c00c
c00c
c00c
6018
7038
3ff0
0fc0
ENDCHAR
STARTCHAR Intersection
ENCODING 200
SWIDTH 628 0
DWIDTH 16 0
BBX 14 18 1 0
BITMAP
0fc0
3ff0
7038
6018
c00c
c00c
c00c
c00c
c00c
c00c
c00c
c00c
c00c
c00c
c00c
c00c
c00c
c00c
ENDCHAR
STARTCHAR ProperSuperset
ENCODING 201
SWIDTH 600 0
DWIDTH 16 0
BBX 11 13 3 0
BITMAP
fe00
ff80
01c0
00c0
0060
0060
0060
0060
0060
00c0
01c0
ff80
ff00
ENDCHAR
STARTCHAR NbSpace
ENCODING 202
SWIDTH 263 0
DWIDTH 7 0
BBX 0 0 0 0
BITMAP
ENDCHAR
STARTCHAR NotSubset
ENCODING 203
SWIDTH 600 0
DWIDTH 16 0
BBX 10 18 2 -3
BITMAP
0300
0300
1fc0
3fc0
7600
6600
c600
c600
c600
cc00
cc00
6c00
7c00
3fc0
1fc0
1800
1800
1800
ENDCHAR
STARTCHAR ProperSubset
ENCODING 204
SWIDTH 600 0
DWIDTH 16 0
BBX 11 13 2 0
BITMAP
1fe0
3fe0
7800
7000
e000
e000
e000
e000
e000
7000
7800
3fe0
1fe0
ENDCHAR
STARTCHAR ReflexSubset
ENCODING 205
SWIDTH 600 0
DWIDTH 16 0
BBX 10 16 2 -2
BITMAP
1fc0
3fc0
7000
e000
c000
c000
c000
c000
e000
7000
3fc0
1fc0
0000
0000
ffc0
ffc0
ENDCHAR
STARTCHAR Element
ENCODING 206
SWIDTH 600 0
DWIDTH 16 0
BBX 10 13 2 0
BITMAP
1fc0
3fc0
7000
e000
c000
ffc0
ffc0
c000
c000
e000
7000
3fc0
1fc0
ENDCHAR
STARTCHAR NotElement
ENCODING 207
SWIDTH 600 0
DWIDTH 16 0
BBX 10 18 2 -3
BITMAP
0300
0300
1fc0
3fc0
7600
e600
c600
ffc0
ffc0
cc00
cc00
ec00
7c00
3fc0
1fc0
1800
1800
1800
ENDCHAR
STARTCHAR Angle
ENCODING 208
SWIDTH 600 0
DWIDTH 16 0
BBX 11 12 2 0
BITMAP
0c00
1c00
1800
1800
3800
3000
3000
7000
6000
e000
ffe0
ffe0
ENDCHAR
STARTCHAR Gradient
ENCODING 209
SWIDTH 600 0
DWIDTH 16 0
BBX 15 15 0 -1
BITMAP
fffe
fffe
600c
701c
3018
1830
1830
0c60
0c60
06c0
07c0
0380
0380
0100
0100
ENDCHAR
STARTCHAR RegTM
ENCODING 210
SWIDTH 600 0
DWIDTH 16 0
BBX 16 15 0 0
BITMAP
07e0
1ff8
381c
7fce
6666
c663
c663
c643
c783
c643
c667
6f76
381c
1ff8
07e0
ENDCHAR
STARTCHAR Copyright
ENCODING 211
SWIDTH 600 0
DWIDTH 16 0
BBX 16 15 0 0
BITMAP
07e0
1ff8
381c
67ee
efe6
dc63
d803
d803
d803
cc23
6fe6
73ce
383c
1ff8
07e0
ENDCHAR
STARTCHAR TM
ENCODING 212
SWIDTH 797 0
DWIDTH 21 0
BBX 19 9 1 6
BITMAP
fff1e0
fffbe0
db7bc0
186ac0
186ac0
186ec0
1864c0
3cf1e0
3cf1e0
ENDCHAR
STARTCHAR Product
ENCODING 213
SWIDTH 679 0
DWIDTH 18 0
BBX 16 18 1 0
BITMAP
ffff
ffff
300c
300c
300c
300c
300c
300c
300c
300c
300c
300c
300c
300c
300c
300c
fc3f
fc3f
ENDCHAR
STARTCHAR Radical
ENCODING 214
SWIDTH 600 0
DWIDTH 16 0
BBX 14 27 1 -6
BITMAP
000c
000c
000c
000c
0018
0018
0018
0018
0030
0030
1030
7830
f860
d860
1c60
0c60
0ce0
06c0
06c0
07c0
03c0
0380
0380
0180
0180
0080
0080
ENDCHAR
STARTCHAR DotMath
ENCODING 215
SWIDTH 600 0
DWIDTH 16 0
BBX 4 3 6 4
BITMAP
60
f0
60
ENDCHAR
STARTCHAR LogicalNot
ENCODING 216
SWIDTH 600 0
DWIDTH 16 0
BBX 10 6 3 2
BITMAP
ffc0
ffc0
00c0
00c0
00c0
00c0
ENDCHAR
STARTCHAR Wedge
ENCODING 217
SWIDTH 694 0
DWIDTH 18 0
BBX 15 15 1 0
BITMAP
0100
0380
0380
07c0
06c0
0ee0
0c60
1c70
1830
3838
3018
701c
701c
e00e
e00e
ENDCHAR
STARTCHAR Vee
ENCODING 218
SWIDTH 692 0
DWIDTH 18 0
BBX 15 15 1 0
BITMAP
e00e
e00e
701c
701c
3838
3838
1830
1c70
0c60
0ee0
06c0
07c0
0380
0380
0100
ENDCHAR
STARTCHAR DblLRArrow
ENCODING 219
SWIDTH 790 0
DWIDTH 21 0
BBX 18 11 1 0
BITMAP
040800
0e1c00
1ffe00
3fff00
700380
e001c0
700380
3fff00
1ffe00
0e1c00
040800
ENDCHAR
STARTCHAR DblLArrow
ENCODING 220
SWIDTH 720 0
DWIDTH 19 0
BBX 16 11 1 0
BITMAP
0400
0e00
1fff
3fff
7000
e000
7000
3fff
1fff
0e00
0400
ENDCHAR
STARTCHAR DblUpArrow
ENCODING 221
SWIDTH 600 0
DWIDTH 16 0
BBX 11 17 2 0
BITMAP
0400
0e00
1f00
3b80
71c0
f1e0
f1e0
3180
3180
3180
3180
3180
3180
3180
3180
3180
3180
ENDCHAR
STARTCHAR DblRArrow
ENCODING 222
SWIDTH 720 0
DWIDTH 19 0
BBX 17 11 1 0
BITMAP
003000
007800
fffc00
fffe00
000f00
000780
000f00
fffe00
fffc00
007800
003000
ENDCHAR
STARTCHAR DblDownArrow
ENCODING 223
SWIDTH 600 0
DWIDTH 16 0
BBX 12 17 2 0
BITMAP
39c0
39c0
39c0
39c0
39c0
39c0
39c0
39c0
39c0
39c0
f9f0
f9f0
79e0
3fc0
1f80
0f00
0600
ENDCHAR
STARTCHAR Lozenge
ENCODING 224
SWIDTH 600 0
DWIDTH 16 0
BBX 9 15 3 0
BITMAP
0800
0800
1c00
3600
3600
6300
c180
c180
c180
6300
3600
3600
1c00
0800
0800
ENDCHAR
STARTCHAR LAngle
ENCODING 225
SWIDTH 600 0
DWIDTH 16 0
BBX 8 19 4 -3
BITMAP
03
06
0e
0c
18
38
30
60
e0
c0
e0
60
30
38
18
0c
0e
06
03
ENDCHAR
STARTCHAR Diffd
ENCODING 226
SWIDTH 598 0
DWIDTH 16 0
BBX 14 16 1 0
BITMAP
07f8
03f8
00d8
00d8
1ed8
7fd8
61d8
e1d8
c0d8
c0d8
c0d8
c0d8
e1d8
61d8
7ffc
1ffc
ENDCHAR
STARTCHAR Expe
ENCODING 227
SWIDTH 600 0
DWIDTH 16 0
BBX 14 12 1 0
BITMAP
0fc0
3ff0
7f38
6618
ec1c
cffc
cffc
cc00
6c04
761c
3ffc
0fe0
ENDCHAR
STARTCHAR Imagi
ENCODING 228
SWIDTH 600 0
DWIDTH 16 0
BBX 12 17 2 0
BITMAP
0e00
0e00
0e00
0e00
0000
0000
ff80
ff80
1980
1980
1980
1980
1980
1980
1980
fff0
fff0
ENDCHAR
STARTCHAR Sum
ENCODING 229
SWIDTH 650 0
DWIDTH 17 0
BBX 15 18 1 0
BITMAP
7ffc
7ffc
380c
180c
1c0c
0e00
0700
0300
0380
0380
0700
0e00
1c00
3806
3006
6006
fffe
fffe
ENDCHAR
STARTCHAR LParenTop
ENCODING 230
SWIDTH 600 0
DWIDTH 16 0
BBX 7 22 7 -1
BITMAP
0e
0c
1c
18
38
30
30
60
60
60
60
60
c0
c0
c0
c0
c0
c0
c0
c0
c0
c0
ENDCHAR
STARTCHAR LParenEx
ENCODING 231
SWIDTH 600 0
DWIDTH 16 0
BBX 2 8 7 0
BITMAP
c0
c0
c0
c0
c0
c0
c0
c0
ENDCHAR
STARTCHAR LParenBot
ENCODING 232
SWIDTH 600 0
DWIDTH 16 0
BBX 7 22 7 0
BITMAP
c0
c0
c0
c0
c0
c0
c0
c0
c0
c0
60
60
60
60
60
30
30
38
18
1c
0c
0e
ENDCHAR
STARTCHAR LBracketTop
ENCODING 233
SWIDTH 600 0
DWIDTH 16 0
BBX 7 4 7 0
BITMAP
fe
fe
c0
c0
ENDCHAR
STARTCHAR LBracketEx
ENCODING 234
SWIDTH 600 0
DWIDTH 16 0
BBX 2 8 7 0
BITMAP
c0
c0
c0
c0
c0
c0
c0
c0
ENDCHAR
STARTCHAR LBracketBot
ENCODING 235
SWIDTH 600 0
DWIDTH 16 0
BBX 7 4 7 0
BITMAP
c0
c0
fe
fe
ENDCHAR
STARTCHAR LBraceTop
ENCODING 236
SWIDTH 600 0
DWIDTH 16 0
BBX 7 17 7 -1
BITMAP
0e
3e
70
60
c0
c0
c0
c0
c0
c0
c0
c0
c0
c0
c0
c0
c0
ENDCHAR
STARTCHAR LBraceMid
ENCODING 237
SWIDTH 600 0
DWIDTH 16 0
BBX 8 19 1 -4
BITMAP
03
03
03
03
03
06
0e
3c
f8
f8
3c
0e
06
07
03
03
03
03
03
ENDCHAR
STARTCHAR LBraceBot
ENCODING 238
SWIDTH 600 0
DWIDTH 16 0
BBX 7 18 7 0
BITMAP
c0
c0
c0
c0
c0
c0
c0
c0
c0
c0
c0
c0
c0
e0
60
70
3e
0e
ENDCHAR
STARTCHAR BraceEx
ENCODING 239
SWIDTH 600 0
DWIDTH 16 0
BBX 2 8 7 0
BITMAP
c0
c0
c0
c0
c0
c0
c0
c0
ENDCHAR
STARTCHAR Slot
ENCODING 240
SWIDTH 600 0
DWIDTH 16 0
BBX 15 15 0 0
BITMAP
1818
1818
1818
fffe
fffe
1818
1818
1818
1818
1818
fffe
fffe
1818
1818
1818
ENDCHAR
STARTCHAR RAngle
ENCODING 241
SWIDTH 600 0
DWIDTH 16 0
BBX 8 19 4 -3
BITMAP
c0
60
70
30
18
1c
0c
06
07
03
07
06
0c
1c
18
30
70
60
c0
ENDCHAR
STARTCHAR Intergral
ENCODING 242
SWIDTH 682 0
DWIDTH 18 0
BBX 15 26 1 -4
BITMAP
0078
00fe
00ce
0180
0180
0180
0180
0180
0180
0180
0180
0180
0180
0180
0180
0180
0180
0180
0180
0180
0180
0180
0380
e300
7f00
3e00
ENDCHAR
STARTCHAR IntegralTop
ENCODING 243
SWIDTH 870 0
DWIDTH 23 0
BBX 18 26 2 -4
BITMAP
0000c0
0000c0
0000c0
0000c0
0000c0
0000c0
0000c0
0000c0
0000c0
0000c0
0000c0
0000c0
0000c0
0000c0
0000c0
0001c0
000180
000180
000380
000380
000700
400700
e00e00
783c00
3ff800
0fe000
ENDCHAR
STARTCHAR IntegralEx
ENCODING 244
SWIDTH 870 0
DWIDTH 23 0
BBX 2 20 17 0
BITMAP
c0
c0
c0
c0
c0
c0
c0
c0
c0
c0
c0
c0
c0
c0
c0
c0
c0
c0
c0
c0
ENDCHAR
STARTCHAR IntegralBot
ENCODING 245
SWIDTH 870 0
DWIDTH 23 0
BBX 19 26 17 -4
BITMAP
01fc00
07ff80
0f03c0
1c01e0
380040
380000
700000
700000
600000
e00000
e00000
c00000
c00000
c00000
c00000
c00000
c00000
c00000
c00000
c00000
c00000
c00000
c00000
c00000
c00000
c00000
ENDCHAR
STARTCHAR RParenTop
ENCODING 246
SWIDTH 600 0
DWIDTH 16 0
BBX 7 22 2 -1
BITMAP
e0
60
70
30
38
18
18
0c
0c
0c
0c
0c
06
06
06
06
06
06
06
06
06
06
ENDCHAR
STARTCHAR RParenEx
ENCODING 247
SWIDTH 600 0
DWIDTH 16 0
BBX 2 8 7 0
BITMAP
c0
c0
c0
c0
c0
c0
c0
c0
ENDCHAR
STARTCHAR RParenBot
ENCODING 248
SWIDTH 600 0
DWIDTH 16 0
BBX 7 22 2 0
BITMAP
06
06
06
06
06
06
06
06
06
06
0c
0c
0c
0c
0c
18
18
38
30
70
60
e0
ENDCHAR
STARTCHAR RBracketTop
ENCODING 249
SWIDTH 600 0
DWIDTH 16 0
BBX 7 4 2 0
BITMAP
fe
fe
06
06
ENDCHAR
STARTCHAR RBracketEx
ENCODING 250
SWIDTH 600 0
DWIDTH 16 0
BBX 2 8 7 0
BITMAP
c0
c0
c0
c0
c0
c0
c0
c0
ENDCHAR
STARTCHAR RBracketBot
ENCODING 251
SWIDTH 600 0
DWIDTH 16 0
BBX 7 4 2 0
BITMAP
06
06
fe
fe
ENDCHAR
STARTCHAR RBraceTop
ENCODING 252
SWIDTH 600 0
DWIDTH 16 0
BBX 8 17 1 -1
BITMAP
f0
fc
1e
06
07
03
03
03
03
03
03
03
03
03
03
03
03
ENDCHAR
STARTCHAR RBraceMid
ENCODING 253
SWIDTH 600 0
DWIDTH 16 0
BBX 8 19 7 -4
BITMAP
c0
c0
c0
c0
c0
60
70
3c
1f
1f
3c
70
60
e0
c0
c0
c0
c0
c0
ENDCHAR
STARTCHAR RBraceBot
ENCODING 254
SWIDTH 600 0
DWIDTH 16 0
BBX 8 18 1 0
BITMAP
03
03
03
03
03
03
03
03
03
03
03
03
03
07
06
1e
fc
f0
ENDCHAR
STARTCHAR Wolf
ENCODING 255
SWIDTH 918 0
DWIDTH 24 0
BBX 22 21 1 -4
BITMAP
008100
008200
008600
01ce00
01dc00
01fc00
036c00
036c00
023c00
061c00
060e00
0c7f00
0c7b80
1801c0
1ffee0
31fff0
60c07c
608000
c18000
c18000
808000
ENDCHAR
ENDFONT
